<?xml version="1.0" encoding="UTF-8"?>
<svg xmlns="http://www.w3.org/2000/svg"
     viewBox="0 0 560 260" width="560" height="260"
     role="img" aria-labelledby="trl-rev-title">

  <title id="trl-rev-title">TheRobotLives — Reversed</title>
  <desc>White/light evolution march with wordmark for dark backgrounds</desc>

  <defs>
    <radialGradient id="evo-core" cx="50%" cy="50%" r="50%">
      <stop offset="0%" stop-color="#4AEDC4"/>
      <stop offset="60%" stop-color="#4AEDC4" stop-opacity="0.5"/>
      <stop offset="100%" stop-color="#4AEDC4" stop-opacity="0"/>
    </radialGradient>
  </defs>

  <line x1="20" y1="172" x2="540" y2="172" stroke="#FFFFFF" stroke-width="1" opacity="0.15"/>

  <!-- Figure 1: Quadruped -->
  <g transform="translate(50, 0)">
    <path d="M 10,140 C 12,128 18,122 28,120 L 50,118 C 58,118 62,122 62,128 C 62,132 58,136 54,138 L 16,142 Z" fill="#FFFFFF" opacity="0.3"/>
    <ellipse cx="12" cy="132" rx="10" ry="8" fill="#FFFFFF" opacity="0.3"/>
    <line x1="20" y1="140" x2="16" y2="170" stroke="#FFFFFF" stroke-width="3.5" stroke-linecap="round" opacity="0.3"/>
    <line x1="28" y1="140" x2="25" y2="170" stroke="#FFFFFF" stroke-width="3.5" stroke-linecap="round" opacity="0.3"/>
    <line x1="48" y1="136" x2="52" y2="170" stroke="#FFFFFF" stroke-width="3.5" stroke-linecap="round" opacity="0.3"/>
    <line x1="55" y1="134" x2="60" y2="170" stroke="#FFFFFF" stroke-width="3.5" stroke-linecap="round" opacity="0.3"/>
    <path d="M 62,126 C 70,120 74,124 72,130" fill="none" stroke="#FFFFFF" stroke-width="2.5" stroke-linecap="round" opacity="0.25"/>
  </g>

  <!-- Figure 2: Ape -->
  <g transform="translate(155, 0)">
    <path d="M 30,100 C 28,90 32,78 38,72 C 42,68 46,68 48,72 C 52,80 52,95 48,108 L 32,112 Z" fill="#FFFFFF" opacity="0.4"/>
    <ellipse cx="34" cy="68" rx="12" ry="10" fill="#FFFFFF" opacity="0.4"/>
    <ellipse cx="28" cy="72" rx="7" ry="5" fill="#FFFFFF" opacity="0.35"/>
    <path d="M 32,88 C 24,100 18,120 14,148 L 12,168" fill="none" stroke="#FFFFFF" stroke-width="4.5" stroke-linecap="round" opacity="0.4"/>
    <path d="M 42,85 C 50,95 54,108 50,118" fill="none" stroke="#FFFFFF" stroke-width="4" stroke-linecap="round" opacity="0.35"/>
    <path d="M 34,112 C 30,130 28,150 26,170" fill="none" stroke="#FFFFFF" stroke-width="5" stroke-linecap="round" opacity="0.4"/>
    <path d="M 46,108 C 48,128 50,150 52,170" fill="none" stroke="#FFFFFF" stroke-width="5" stroke-linecap="round" opacity="0.4"/>
  </g>

  <!-- Figure 3: Human -->
  <g transform="translate(280, 0)">
    <circle cx="30" cy="52" r="10" fill="#FFFFFF" opacity="0.55"/>
    <line x1="30" y1="62" x2="30" y2="70" stroke="#FFFFFF" stroke-width="4" stroke-linecap="round" opacity="0.55"/>
    <path d="M 22,70 L 38,70 L 36,118 L 24,118 Z" fill="#FFFFFF" opacity="0.55"/>
    <path d="M 24,74 C 16,90 12,108 18,125" fill="none" stroke="#FFFFFF" stroke-width="4" stroke-linecap="round" opacity="0.5"/>
    <path d="M 36,74 C 44,88 48,100 42,115" fill="none" stroke="#FFFFFF" stroke-width="4" stroke-linecap="round" opacity="0.5"/>
    <path d="M 26,118 C 20,138 16,155 12,170" fill="none" stroke="#FFFFFF" stroke-width="5" stroke-linecap="round" opacity="0.55"/>
    <path d="M 34,118 C 38,138 44,155 48,170" fill="none" stroke="#FFFFFF" stroke-width="5" stroke-linecap="round" opacity="0.55"/>
  </g>

  <!-- Figure 4: Android -->
  <g transform="translate(400, 0)">
    <circle cx="40" cy="100" r="60" fill="url(#evo-core)" opacity="0.15"/>
    <path d="M 28,40 L 52,40 C 54,40 56,42 56,44 L 56,56 C 56,60 54,62 52,62 L 28,62 C 26,62 24,60 24,56 L 24,44 C 24,42 26,40 28,40 Z" fill="#FFFFFF" opacity="0.9"/>
    <rect x="27" y="46" width="26" height="8" rx="2" fill="#4AEDC4" opacity="0.85"/>
    <rect x="35" y="62" width="10" height="8" rx="1" fill="#FFFFFF" opacity="0.7"/>
    <path d="M 22,70 L 58,70 L 55,122 L 25,122 Z" fill="#FFFFFF" opacity="0.85"/>
    <circle cx="40" cy="92" r="8" fill="#080B14"/>
    <circle cx="40" cy="92" r="6" fill="#4AEDC4" opacity="0.9"/>
    <circle cx="40" cy="91" r="2.5" fill="#FFFFFF" opacity="0.6"/>
    <line x1="30" y1="80" x2="40" y2="84" stroke="#4AEDC4" stroke-width="0.75" opacity="0.3"/>
    <line x1="50" y1="80" x2="40" y2="84" stroke="#4AEDC4" stroke-width="0.75" opacity="0.3"/>
    <line x1="40" y1="100" x2="32" y2="115" stroke="#4AEDC4" stroke-width="0.75" opacity="0.3"/>
    <line x1="40" y1="100" x2="48" y2="115" stroke="#4AEDC4" stroke-width="0.75" opacity="0.3"/>
    <path d="M 22,74 L 10,95" stroke="#FFFFFF" stroke-width="5" stroke-linecap="round" opacity="0.8"/>
    <circle cx="10" cy="95" r="3" fill="#FFFFFF" opacity="0.7"/>
    <path d="M 10,95 L 4,120" stroke="#FFFFFF" stroke-width="4" stroke-linecap="round" opacity="0.8"/>
    <rect x="1" y="118" width="7" height="5" rx="1.5" fill="#FFFFFF" opacity="0.7"/>
    <path d="M 58,74 L 68,98" stroke="#FFFFFF" stroke-width="5" stroke-linecap="round" opacity="0.8"/>
    <circle cx="68" cy="98" r="3" fill="#FFFFFF" opacity="0.7"/>
    <path d="M 68,98 L 72,122" stroke="#FFFFFF" stroke-width="4" stroke-linecap="round" opacity="0.8"/>
    <rect x="69" y="120" width="7" height="5" rx="1.5" fill="#FFFFFF" opacity="0.7"/>
    <path d="M 30,122 L 24,145" stroke="#FFFFFF" stroke-width="5.5" stroke-linecap="round" opacity="0.8"/>
    <circle cx="24" cy="145" r="3.5" fill="#FFFFFF" opacity="0.7"/>
    <path d="M 24,145 L 20,170" stroke="#FFFFFF" stroke-width="5" stroke-linecap="round" opacity="0.8"/>
    <path d="M 50,122 L 54,145" stroke="#FFFFFF" stroke-width="5.5" stroke-linecap="round" opacity="0.8"/>
    <circle cx="54" cy="145" r="3.5" fill="#FFFFFF" opacity="0.7"/>
    <path d="M 54,145 L 58,170" stroke="#FFFFFF" stroke-width="5" stroke-linecap="round" opacity="0.8"/>
    <rect x="15" y="168" width="12" height="4" rx="1.5" fill="#FFFFFF" opacity="0.7"/>
    <rect x="53" y="168" width="12" height="4" rx="1.5" fill="#FFFFFF" opacity="0.7"/>
  </g>

  <!-- Wordmark -->
  <text x="280" y="228" text-anchor="middle"
        font-family="'Outfit', system-ui, sans-serif"
        font-size="36" font-weight="600" letter-spacing="-0.5">
    <tspan fill="rgba(255,255,255,0.4)">the</tspan><tspan fill="#4AEDC4">robot</tspan><tspan fill="#FFFFFF">lives</tspan>
  </text>

</svg>
