<!--
  VERSION: 1.0
  DATE: 2026-05-12
  STATUS: Draft
  PAGE: /registry — MCP Registry Search
  VIEWBOX: 0 0 1440 900
-->
<svg xmlns="http://www.w3.org/2000/svg" viewBox="0 0 1440 900" width="1440" height="900" font-family="system-ui, -apple-system, sans-serif">

  <!-- ═══════════════════════════════════════════════════════════
       BACKGROUND
  ═══════════════════════════════════════════════════════════ -->
  <rect width="1440" height="900" fill="#F8F8F8"/>

  <!-- ═══════════════════════════════════════════════════════════
       GLOBAL NAV  y:0  h:64
  ═══════════════════════════════════════════════════════════ -->
  <rect x="0" y="0" width="1440" height="64" fill="#FFFFFF" stroke="#D4D4D4" stroke-width="1"/>

  <!-- Logo -->
  <rect x="24" y="18" width="28" height="28" rx="6" fill="#3B82F6"/>
  <text x="38" y="36" text-anchor="middle" fill="#FFFFFF" font-size="13" font-weight="700">M</text>
  <text x="62" y="37" fill="#171717" font-size="16" font-weight="700">MCPHost</text>

  <!-- Platform Switcher -->
  <rect x="200" y="20" width="140" height="28" rx="6" fill="#F8F8F8" stroke="#D4D4D4" stroke-width="1"/>
  <text x="213" y="38" fill="#171717" font-size="13">Registry</text>
  <text x="320" y="38" fill="#A3A3A3" font-size="13">▾</text>

  <!-- Right Nav -->
  <text x="900" y="37" fill="#737373" font-size="14">Docs</text>
  <text x="960" y="37" fill="#737373" font-size="14">Pricing</text>
  <text x="1028" y="37" fill="#737373" font-size="14">Blog</text>

  <!-- Sign In -->
  <rect x="1100" y="18" width="88" height="30" rx="6" fill="#FFFFFF" stroke="#D4D4D4" stroke-width="1"/>
  <text x="1144" y="37" text-anchor="middle" fill="#171717" font-size="13">Sign In</text>

  <!-- Get Started -->
  <rect x="1204" y="18" width="112" height="30" rx="6" fill="#3B82F6"/>
  <text x="1260" y="37" text-anchor="middle" fill="#FFFFFF" font-size="13" font-weight="600">Get Started</text>

  <!-- ═══════════════════════════════════════════════════════════
       SEARCH HEADER  y:64  h:140
  ═══════════════════════════════════════════════════════════ -->
  <rect x="0" y="64" width="1440" height="140" fill="#FFFFFF" stroke="#D4D4D4" stroke-width="1"/>

  <!-- Heading -->
  <text x="720" y="108" text-anchor="middle" fill="#171717" font-size="28" font-weight="700">MCP Registry</text>

  <!-- Search Input -->
  <rect x="320" y="118" width="800" height="48" rx="8" fill="#FFFFFF" stroke="#D4D4D4" stroke-width="1.5"/>
  <!-- Search icon placeholder -->
  <circle cx="348" cy="142" r="9" fill="none" stroke="#A3A3A3" stroke-width="2"/>
  <line x1="354" y1="149" x2="360" y2="155" stroke="#A3A3A3" stroke-width="2" stroke-linecap="round"/>
  <!-- Placeholder text -->
  <text x="372" y="147" fill="#A3A3A3" font-size="14">Search servers, tools, and capabilities...</text>
  <!-- Search button inside input -->
  <rect x="1068" y="124" width="44" height="36" rx="6" fill="#3B82F6"/>
  <text x="1090" y="147" text-anchor="middle" fill="#FFFFFF" font-size="12" font-weight="600">Go</text>

  <!-- Category Chips row — clipped within header visually -->
  <!-- chips rendered at y:174 which is within y:64+140=204 range -->
  <!-- All -->
  <rect x="320" y="174" width="40" height="26" rx="13" fill="#171717"/>
  <text x="340" y="191" text-anchor="middle" fill="#FFFFFF" font-size="12" font-weight="600">All</text>
  <!-- Communication -->
  <rect x="368" y="174" width="112" height="26" rx="13" fill="#FFFFFF" stroke="#D4D4D4" stroke-width="1"/>
  <text x="424" y="191" text-anchor="middle" fill="#737373" font-size="12">Communication</text>
  <!-- Data & Storage -->
  <rect x="488" y="174" width="110" height="26" rx="13" fill="#FFFFFF" stroke="#D4D4D4" stroke-width="1"/>
  <text x="543" y="191" text-anchor="middle" fill="#737373" font-size="12">Data &amp; Storage</text>
  <!-- Developer Tools -->
  <rect x="606" y="174" width="114" height="26" rx="13" fill="#FFFFFF" stroke="#D4D4D4" stroke-width="1"/>
  <text x="663" y="191" text-anchor="middle" fill="#737373" font-size="12">Developer Tools</text>
  <!-- AI & ML -->
  <rect x="728" y="174" width="70" height="26" rx="13" fill="#FFFFFF" stroke="#D4D4D4" stroke-width="1"/>
  <text x="763" y="191" text-anchor="middle" fill="#737373" font-size="12">AI &amp; ML</text>
  <!-- Productivity -->
  <rect x="806" y="174" width="94" height="26" rx="13" fill="#FFFFFF" stroke="#D4D4D4" stroke-width="1"/>
  <text x="853" y="191" text-anchor="middle" fill="#737373" font-size="12">Productivity</text>
  <!-- Infrastructure -->
  <rect x="908" y="174" width="104" height="26" rx="13" fill="#FFFFFF" stroke="#D4D4D4" stroke-width="1"/>
  <text x="960" y="191" text-anchor="middle" fill="#737373" font-size="12">Infrastructure</text>
  <!-- Finance -->
  <rect x="1020" y="174" width="74" height="26" rx="13" fill="#FFFFFF" stroke="#D4D4D4" stroke-width="1"/>
  <text x="1057" y="191" text-anchor="middle" fill="#737373" font-size="12">Finance</text>

  <!-- ═══════════════════════════════════════════════════════════
       FILTER + RESULTS  y:220  h:664
  ═══════════════════════════════════════════════════════════ -->

  <!-- ─── LEFT SIDEBAR (240px) ─── -->
  <rect x="24" y="228" width="240" height="636" rx="8" fill="#FFFFFF" stroke="#D4D4D4" stroke-width="1"/>

  <!-- Sidebar header -->
  <text x="40" y="256" fill="#171717" font-size="14" font-weight="700">Filters</text>
  <text x="220" y="256" text-anchor="end" fill="#3B82F6" font-size="12">Clear all</text>
  <line x1="40" y1="264" x2="248" y2="264" stroke="#D4D4D4" stroke-width="1"/>

  <!-- Language section -->
  <text x="40" y="286" fill="#171717" font-size="13" font-weight="600">Language</text>
  <!-- TypeScript -->
  <rect x="40" y="296" width="14" height="14" rx="2" fill="#FFFFFF" stroke="#D4D4D4" stroke-width="1.5"/>
  <text x="62" y="308" fill="#737373" font-size="13">TypeScript</text>
  <!-- Python -->
  <rect x="40" y="318" width="14" height="14" rx="2" fill="#FFFFFF" stroke="#D4D4D4" stroke-width="1.5"/>
  <text x="62" y="330" fill="#737373" font-size="13">Python</text>
  <!-- Elixir -->
  <rect x="40" y="340" width="14" height="14" rx="2" fill="#FFFFFF" stroke="#D4D4D4" stroke-width="1.5"/>
  <text x="62" y="352" fill="#737373" font-size="13">Elixir</text>
  <!-- Go -->
  <rect x="40" y="362" width="14" height="14" rx="2" fill="#171717" stroke="#171717" stroke-width="1.5"/>
  <line x1="42" y1="369" x2="52" y2="369" stroke="#FFFFFF" stroke-width="1.5"/>
  <text x="62" y="374" fill="#171717" font-size="13" font-weight="500">Go</text>
  <!-- Rust -->
  <rect x="40" y="384" width="14" height="14" rx="2" fill="#FFFFFF" stroke="#D4D4D4" stroke-width="1.5"/>
  <text x="62" y="396" fill="#737373" font-size="13">Rust</text>

  <line x1="40" y1="408" x2="248" y2="408" stroke="#D4D4D4" stroke-width="1"/>

  <!-- Auth Method section -->
  <text x="40" y="428" fill="#171717" font-size="13" font-weight="600">Auth Method</text>
  <!-- API Key -->
  <rect x="40" y="438" width="14" height="14" rx="2" fill="#171717" stroke="#171717" stroke-width="1.5"/>
  <line x1="42" y1="445" x2="52" y2="445" stroke="#FFFFFF" stroke-width="1.5"/>
  <text x="62" y="450" fill="#171717" font-size="13" font-weight="500">API Key</text>
  <!-- OAuth -->
  <rect x="40" y="460" width="14" height="14" rx="2" fill="#FFFFFF" stroke="#D4D4D4" stroke-width="1.5"/>
  <text x="62" y="472" fill="#737373" font-size="13">OAuth</text>
  <!-- mTLS -->
  <rect x="40" y="482" width="14" height="14" rx="2" fill="#FFFFFF" stroke="#D4D4D4" stroke-width="1.5"/>
  <text x="62" y="494" fill="#737373" font-size="13">mTLS</text>
  <!-- None -->
  <rect x="40" y="504" width="14" height="14" rx="2" fill="#FFFFFF" stroke="#D4D4D4" stroke-width="1.5"/>
  <text x="62" y="516" fill="#737373" font-size="13">None</text>

  <line x1="40" y1="530" x2="248" y2="530" stroke="#D4D4D4" stroke-width="1"/>

  <!-- Trust Score section -->
  <text x="40" y="550" fill="#171717" font-size="13" font-weight="600">Trust Score</text>
  <!-- Star rating placeholder -->
  <text x="40" y="572" fill="#3B82F6" font-size="18">★ ★ ★</text>
  <text x="130" y="572" fill="#D4D4D4" font-size="18">★ ★</text>
  <!-- Slider track -->
  <rect x="40" y="582" width="192" height="4" rx="2" fill="#D4D4D4"/>
  <rect x="40" y="582" width="120" height="4" rx="2" fill="#3B82F6"/>
  <circle cx="160" cy="584" r="8" fill="#FFFFFF" stroke="#3B82F6" stroke-width="2"/>

  <line x1="40" y1="602" x2="248" y2="602" stroke="#D4D4D4" stroke-width="1"/>

  <!-- Health section -->
  <text x="40" y="622" fill="#171717" font-size="13" font-weight="600">Health</text>
  <!-- Radio All -->
  <circle cx="47" cy="638" r="7" fill="#FFFFFF" stroke="#D4D4D4" stroke-width="1.5"/>
  <text x="62" y="643" fill="#737373" font-size="13">All</text>
  <!-- Radio Healthy only -->
  <circle cx="47" cy="660" r="7" fill="#FFFFFF" stroke="#3B82F6" stroke-width="1.5"/>
  <circle cx="47" cy="660" r="3.5" fill="#3B82F6"/>
  <text x="62" y="665" fill="#171717" font-size="13" font-weight="500">Healthy only</text>

  <!-- ─── MAIN CONTENT AREA ─── -->
  <!-- Grid 3 columns × 2 rows, card ~340w × 200h, gap 16, start x:280 -->

  <!-- ── ROW 1 ── -->

  <!-- Card 1,1 -->
  <rect x="280" y="228" width="360" height="200" rx="8" fill="#FFFFFF" stroke="#D4D4D4" stroke-width="1"/>
  <circle cx="306" cy="254" r="16" fill="#D4D4D4"/>
  <text x="306" y="259" text-anchor="middle" fill="#737373" font-size="11" font-weight="600">GH</text>
  <text x="330" y="251" fill="#171717" font-size="14" font-weight="700">github-mcp-server</text>
  <text x="330" y="267" fill="#737373" font-size="12">github-actions-org</text>
  <text x="298" y="296" fill="#737373" font-size="12" font-style="italic">Access GitHub repos, issues, PRs, and</text>
  <text x="298" y="312" fill="#737373" font-size="12" font-style="italic">workflows via natural language.</text>
  <!-- Divider -->
  <line x1="298" y1="352" x2="624" y2="352" stroke="#F8F8F8" stroke-width="1"/>
  <!-- Bottom row badges -->
  <rect x="298" y="358" width="70" height="22" rx="4" fill="#F8F8F8" stroke="#D4D4D4" stroke-width="1"/>
  <text x="333" y="373" text-anchor="middle" fill="#737373" font-size="11">12 tools</text>
  <circle cx="390" cy="369" r="5" fill="#22C55E"/>
  <text x="404" y="373" fill="#737373" font-size="11">Healthy</text>
  <text x="460" y="373" fill="#737373" font-size="12">★ 4.8</text>
  <rect x="506" y="358" width="90" height="22" rx="4" fill="#F8F8F8" stroke="#D4D4D4" stroke-width="1"/>
  <text x="551" y="373" text-anchor="middle" fill="#737373" font-size="11">TypeScript</text>

  <!-- Card 1,2 -->
  <rect x="656" y="228" width="360" height="200" rx="8" fill="#FFFFFF" stroke="#D4D4D4" stroke-width="1"/>
  <circle cx="682" cy="254" r="16" fill="#D4D4D4"/>
  <text x="682" y="259" text-anchor="middle" fill="#737373" font-size="11" font-weight="600">SL</text>
  <text x="706" y="251" fill="#171717" font-size="14" font-weight="700">slack-connector</text>
  <text x="706" y="267" fill="#737373" font-size="12">enterprise-tools</text>
  <text x="674" y="296" fill="#737373" font-size="12" font-style="italic">Send messages, manage channels, search</text>
  <text x="674" y="312" fill="#737373" font-size="12" font-style="italic">Slack workspaces programmatically.</text>
  <line x1="674" y1="352" x2="1000" y2="352" stroke="#F8F8F8" stroke-width="1"/>
  <rect x="674" y="358" width="64" height="22" rx="4" fill="#F8F8F8" stroke="#D4D4D4" stroke-width="1"/>
  <text x="706" y="373" text-anchor="middle" fill="#737373" font-size="11">8 tools</text>
  <circle cx="760" cy="369" r="5" fill="#22C55E"/>
  <text x="774" y="373" fill="#737373" font-size="11">Healthy</text>
  <text x="830" y="373" fill="#737373" font-size="12">★ 4.6</text>
  <rect x="876" y="358" width="66" height="22" rx="4" fill="#F8F8F8" stroke="#D4D4D4" stroke-width="1"/>
  <text x="909" y="373" text-anchor="middle" fill="#737373" font-size="11">Python</text>

  <!-- Card 1,3 -->
  <rect x="1032" y="228" width="360" height="200" rx="8" fill="#FFFFFF" stroke="#D4D4D4" stroke-width="1"/>
  <circle cx="1058" cy="254" r="16" fill="#D4D4D4"/>
  <text x="1058" y="259" text-anchor="middle" fill="#737373" font-size="11" font-weight="600">PG</text>
  <text x="1082" y="251" fill="#171717" font-size="14" font-weight="700">postgres-query</text>
  <text x="1082" y="267" fill="#737373" font-size="12">db-utilities</text>
  <text x="1050" y="296" fill="#737373" font-size="12" font-style="italic">Query, inspect, and migrate Postgres</text>
  <text x="1050" y="312" fill="#737373" font-size="12" font-style="italic">databases using natural language SQL.</text>
  <line x1="1050" y1="352" x2="1376" y2="352" stroke="#F8F8F8" stroke-width="1"/>
  <rect x="1050" y="358" width="64" height="22" rx="4" fill="#F8F8F8" stroke="#D4D4D4" stroke-width="1"/>
  <text x="1082" y="373" text-anchor="middle" fill="#737373" font-size="11">6 tools</text>
  <circle cx="1136" cy="369" r="5" fill="#EAB308"/>
  <text x="1150" y="373" fill="#737373" font-size="11">Degraded</text>
  <text x="1218" y="373" fill="#737373" font-size="12">★ 4.2</text>
  <rect x="1264" y="358" width="50" height="22" rx="4" fill="#F8F8F8" stroke="#D4D4D4" stroke-width="1"/>
  <text x="1289" y="373" text-anchor="middle" fill="#737373" font-size="11">Go</text>

  <!-- ── ROW 2 ── -->

  <!-- Card 2,1 -->
  <rect x="280" y="444" width="360" height="200" rx="8" fill="#FFFFFF" stroke="#D4D4D4" stroke-width="1"/>
  <circle cx="306" cy="470" r="16" fill="#D4D4D4"/>
  <text x="306" y="475" text-anchor="middle" fill="#737373" font-size="11" font-weight="600">FS</text>
  <text x="330" y="467" fill="#171717" font-size="14" font-weight="700">filesystem-ops</text>
  <text x="330" y="483" fill="#737373" font-size="12">core-mcp</text>
  <text x="298" y="512" fill="#737373" font-size="12" font-style="italic">Read, write, and search local files with</text>
  <text x="298" y="528" fill="#737373" font-size="12" font-style="italic">sandboxed filesystem access.</text>
  <line x1="298" y1="568" x2="624" y2="568" stroke="#F8F8F8" stroke-width="1"/>
  <rect x="298" y="574" width="70" height="22" rx="4" fill="#F8F8F8" stroke="#D4D4D4" stroke-width="1"/>
  <text x="333" y="589" text-anchor="middle" fill="#737373" font-size="11">15 tools</text>
  <circle cx="390" cy="585" r="5" fill="#22C55E"/>
  <text x="404" y="589" fill="#737373" font-size="11">Healthy</text>
  <text x="460" y="589" fill="#737373" font-size="12">★ 4.9</text>
  <rect x="506" y="574" width="90" height="22" rx="4" fill="#F8F8F8" stroke="#D4D4D4" stroke-width="1"/>
  <text x="551" y="589" text-anchor="middle" fill="#737373" font-size="11">TypeScript</text>

  <!-- Card 2,2 -->
  <rect x="656" y="444" width="360" height="200" rx="8" fill="#FFFFFF" stroke="#D4D4D4" stroke-width="1"/>
  <circle cx="682" cy="470" r="16" fill="#D4D4D4"/>
  <text x="682" y="475" text-anchor="middle" fill="#737373" font-size="11" font-weight="600">AW</text>
  <text x="706" y="467" fill="#171717" font-size="14" font-weight="700">aws-bedrock-mcp</text>
  <text x="706" y="483" fill="#737373" font-size="12">cloud-integrations</text>
  <text x="674" y="512" fill="#737373" font-size="12" font-style="italic">Invoke Bedrock models, manage S3 buckets</text>
  <text x="674" y="528" fill="#737373" font-size="12" font-style="italic">and Lambda functions from any agent.</text>
  <line x1="674" y1="568" x2="1000" y2="568" stroke="#F8F8F8" stroke-width="1"/>
  <rect x="674" y="574" width="70" height="22" rx="4" fill="#F8F8F8" stroke="#D4D4D4" stroke-width="1"/>
  <text x="709" y="589" text-anchor="middle" fill="#737373" font-size="11">21 tools</text>
  <circle cx="766" cy="585" r="5" fill="#22C55E"/>
  <text x="780" y="589" fill="#737373" font-size="11">Healthy</text>
  <text x="836" y="589" fill="#737373" font-size="12">★ 4.7</text>
  <rect x="882" y="574" width="66" height="22" rx="4" fill="#F8F8F8" stroke="#D4D4D4" stroke-width="1"/>
  <text x="915" y="589" text-anchor="middle" fill="#737373" font-size="11">Python</text>

  <!-- Card 2,3 -->
  <rect x="1032" y="444" width="360" height="200" rx="8" fill="#FFFFFF" stroke="#D4D4D4" stroke-width="1"/>
  <circle cx="1058" cy="470" r="16" fill="#D4D4D4"/>
  <text x="1058" y="475" text-anchor="middle" fill="#737373" font-size="11" font-weight="600">EX</text>
  <text x="1082" y="467" fill="#171717" font-size="14" font-weight="700">ex-mcp-bridge</text>
  <text x="1082" y="483" fill="#737373" font-size="12">elixir-community</text>
  <text x="1050" y="512" fill="#737373" font-size="12" font-style="italic">Phoenix-native MCP bridge with OTP</text>
  <text x="1050" y="528" fill="#737373" font-size="12" font-style="italic">supervision and LiveView integration.</text>
  <line x1="1050" y1="568" x2="1376" y2="568" stroke="#F8F8F8" stroke-width="1"/>
  <rect x="1050" y="574" width="64" height="22" rx="4" fill="#F8F8F8" stroke="#D4D4D4" stroke-width="1"/>
  <text x="1082" y="589" text-anchor="middle" fill="#737373" font-size="11">9 tools</text>
  <circle cx="1136" cy="585" r="5" fill="#22C55E"/>
  <text x="1150" y="589" fill="#737373" font-size="11">Healthy</text>
  <text x="1206" y="589" fill="#737373" font-size="12">★ 4.5</text>
  <rect x="1252" y="574" width="54" height="22" rx="4" fill="#F8F8F8" stroke="#D4D4D4" stroke-width="1"/>
  <text x="1279" y="589" text-anchor="middle" fill="#737373" font-size="11">Elixir</text>

  <!-- ─── PAGINATION ROW ─── -->
  <text x="280" y="672" fill="#737373" font-size="13">Showing 1–6 of 247 servers</text>

  <!-- Pagination controls -->
  <rect x="1052" y="658" width="36" height="28" rx="4" fill="#FFFFFF" stroke="#D4D4D4" stroke-width="1"/>
  <text x="1070" y="676" text-anchor="middle" fill="#A3A3A3" font-size="13">‹</text>

  <rect x="1096" y="658" width="36" height="28" rx="4" fill="#3B82F6"/>
  <text x="1114" y="676" text-anchor="middle" fill="#FFFFFF" font-size="13" font-weight="600">1</text>

  <rect x="1140" y="658" width="36" height="28" rx="4" fill="#FFFFFF" stroke="#D4D4D4" stroke-width="1"/>
  <text x="1158" y="676" text-anchor="middle" fill="#737373" font-size="13">2</text>

  <rect x="1184" y="658" width="36" height="28" rx="4" fill="#FFFFFF" stroke="#D4D4D4" stroke-width="1"/>
  <text x="1202" y="676" text-anchor="middle" fill="#737373" font-size="13">3</text>

  <rect x="1228" y="658" width="36" height="28" rx="4" fill="#FFFFFF" stroke="#D4D4D4" stroke-width="1"/>
  <text x="1246" y="676" text-anchor="middle" fill="#737373" font-size="13">…</text>

  <rect x="1272" y="658" width="44" height="28" rx="4" fill="#FFFFFF" stroke="#D4D4D4" stroke-width="1"/>
  <text x="1294" y="676" text-anchor="middle" fill="#737373" font-size="13">42</text>

  <rect x="1324" y="658" width="36" height="28" rx="4" fill="#FFFFFF" stroke="#D4D4D4" stroke-width="1"/>
  <text x="1342" y="676" text-anchor="middle" fill="#737373" font-size="13">›</text>

  <!-- ═══════════════════════════════════════════════════════════
       FOOTER  y:700  h:??  (fills remaining space to 900)
  ═══════════════════════════════════════════════════════════ -->
  <rect x="0" y="700" width="1440" height="200" fill="#FFFFFF" stroke="#D4D4D4" stroke-width="1"/>

  <!-- Footer columns -->
  <text x="24" y="728" fill="#171717" font-size="14" font-weight="700">MCPHost</text>
  <text x="24" y="748" fill="#737373" font-size="12">The open registry for MCP servers.</text>
  <text x="24" y="764" fill="#737373" font-size="12">Deploy, discover, connect.</text>

  <text x="320" y="728" fill="#171717" font-size="13" font-weight="600">Registry</text>
  <text x="320" y="748" fill="#737373" font-size="12">Browse Servers</text>
  <text x="320" y="764" fill="#737373" font-size="12">Submit Server</text>
  <text x="320" y="780" fill="#737373" font-size="12">API Access</text>

  <text x="500" y="728" fill="#171717" font-size="13" font-weight="600">Developers</text>
  <text x="500" y="748" fill="#737373" font-size="12">Documentation</text>
  <text x="500" y="764" fill="#737373" font-size="12">SDK Reference</text>
  <text x="500" y="780" fill="#737373" font-size="12">CLI Tools</text>

  <text x="680" y="728" fill="#171717" font-size="13" font-weight="600">Company</text>
  <text x="680" y="748" fill="#737373" font-size="12">About</text>
  <text x="680" y="764" fill="#737373" font-size="12">Blog</text>
  <text x="680" y="780" fill="#737373" font-size="12">Careers</text>

  <line x1="24" y1="850" x2="1416" y2="850" stroke="#D4D4D4" stroke-width="1"/>
  <text x="24" y="870" fill="#A3A3A3" font-size="11">© 2026 MCPHost. All rights reserved.</text>
  <text x="1416" y="870" text-anchor="end" fill="#A3A3A3" font-size="11">Privacy · Terms · Status</text>

</svg>
